<mxfile host="app.diagrams.net" agent="Mozilla/5.0 (X11; Ubuntu; Linux x86_64; rv:135.0) Gecko/20100101 Firefox/135.0" version="26.0.13">
  <diagram name="Page-1" id="magM6A0jNzGvBwNmIeoj">
    <mxGraphModel dx="2214" dy="795" grid="1" gridSize="10" guides="1" tooltips="1" connect="1" arrows="1" fold="1" page="1" pageScale="1" pageWidth="850" pageHeight="1100" math="0" shadow="0">
      <root>
        <mxCell id="0" />
        <mxCell id="1" parent="0" />
        <mxCell id="hMCn-dpXVEeFwixIljns-12" style="edgeStyle=orthogonalEdgeStyle;rounded=0;orthogonalLoop=1;jettySize=auto;html=1;entryX=0;entryY=0.5;entryDx=0;entryDy=0;" edge="1" parent="1" source="hMCn-dpXVEeFwixIljns-1" target="hMCn-dpXVEeFwixIljns-3">
          <mxGeometry relative="1" as="geometry" />
        </mxCell>
        <mxCell id="hMCn-dpXVEeFwixIljns-1" value="&lt;div&gt;Camera&lt;/div&gt;&lt;div&gt;Video&lt;/div&gt;&lt;div&gt;Sensor&lt;/div&gt;" style="rounded=0;whiteSpace=wrap;html=1;" vertex="1" parent="1">
          <mxGeometry x="715" y="314" width="120" height="60" as="geometry" />
        </mxCell>
        <mxCell id="hMCn-dpXVEeFwixIljns-13" style="edgeStyle=orthogonalEdgeStyle;rounded=0;orthogonalLoop=1;jettySize=auto;html=1;" edge="1" parent="1" source="hMCn-dpXVEeFwixIljns-2">
          <mxGeometry relative="1" as="geometry">
            <mxPoint x="985" y="471" as="targetPoint" />
          </mxGeometry>
        </mxCell>
        <mxCell id="hMCn-dpXVEeFwixIljns-2" value="&lt;div&gt;Microphone&lt;/div&gt;&lt;div&gt;Voice&lt;/div&gt;&lt;div&gt;Sensor&lt;/div&gt;" style="rounded=0;whiteSpace=wrap;html=1;" vertex="1" parent="1">
          <mxGeometry x="715" y="441" width="120" height="60" as="geometry" />
        </mxCell>
        <mxCell id="hMCn-dpXVEeFwixIljns-3" value="Analytics" style="rounded=0;whiteSpace=wrap;html=1;" vertex="1" parent="1">
          <mxGeometry x="995" y="314" width="120" height="60" as="geometry" />
        </mxCell>
        <mxCell id="hMCn-dpXVEeFwixIljns-4" value="Analytics" style="rounded=0;whiteSpace=wrap;html=1;" vertex="1" parent="1">
          <mxGeometry x="995" y="441" width="120" height="60" as="geometry" />
        </mxCell>
        <mxCell id="hMCn-dpXVEeFwixIljns-5" value="VLM / YOLO" style="text;html=1;align=center;verticalAlign=middle;resizable=0;points=[];autosize=1;strokeColor=none;fillColor=none;" vertex="1" parent="1">
          <mxGeometry x="995" y="278" width="90" height="30" as="geometry" />
        </mxCell>
        <mxCell id="hMCn-dpXVEeFwixIljns-6" value="&lt;div&gt;Whisper/Ultravox&lt;/div&gt;" style="text;html=1;align=center;verticalAlign=middle;whiteSpace=wrap;rounded=0;" vertex="1" parent="1">
          <mxGeometry x="1010" y="410" width="60" height="30" as="geometry" />
        </mxCell>
        <mxCell id="hMCn-dpXVEeFwixIljns-7" value="&lt;div&gt;Decision&lt;/div&gt;&lt;div&gt;Engine&lt;/div&gt;&lt;div&gt;LLM&lt;/div&gt;" style="rounded=0;whiteSpace=wrap;html=1;" vertex="1" parent="1">
          <mxGeometry x="1365" y="350" width="120" height="80" as="geometry" />
        </mxCell>
        <mxCell id="hMCn-dpXVEeFwixIljns-8" style="edgeStyle=orthogonalEdgeStyle;rounded=0;orthogonalLoop=1;jettySize=auto;html=1;entryX=-0.017;entryY=0.663;entryDx=0;entryDy=0;entryPerimeter=0;" edge="1" parent="1" source="hMCn-dpXVEeFwixIljns-3" target="hMCn-dpXVEeFwixIljns-7">
          <mxGeometry relative="1" as="geometry" />
        </mxCell>
        <mxCell id="hMCn-dpXVEeFwixIljns-9" style="edgeStyle=orthogonalEdgeStyle;rounded=0;orthogonalLoop=1;jettySize=auto;html=1;entryX=0;entryY=0.613;entryDx=0;entryDy=0;entryPerimeter=0;" edge="1" parent="1" source="hMCn-dpXVEeFwixIljns-4" target="hMCn-dpXVEeFwixIljns-7">
          <mxGeometry relative="1" as="geometry" />
        </mxCell>
        <mxCell id="hMCn-dpXVEeFwixIljns-10" value="metadata/ kb" style="text;html=1;align=center;verticalAlign=middle;resizable=0;points=[];autosize=1;strokeColor=none;fillColor=none;" vertex="1" parent="1">
          <mxGeometry x="1150" y="308" width="90" height="30" as="geometry" />
        </mxCell>
        <mxCell id="hMCn-dpXVEeFwixIljns-11" value="metadata/ kb" style="text;html=1;align=center;verticalAlign=middle;resizable=0;points=[];autosize=1;strokeColor=none;fillColor=none;" vertex="1" parent="1">
          <mxGeometry x="1150" y="480" width="90" height="30" as="geometry" />
        </mxCell>
        <mxCell id="hMCn-dpXVEeFwixIljns-14" value="Mb/Gb" style="text;html=1;align=center;verticalAlign=middle;resizable=0;points=[];autosize=1;strokeColor=none;fillColor=none;" vertex="1" parent="1">
          <mxGeometry x="855" y="308" width="60" height="30" as="geometry" />
        </mxCell>
        <mxCell id="hMCn-dpXVEeFwixIljns-15" value="streaming / ondevice" style="text;html=1;align=center;verticalAlign=middle;resizable=0;points=[];autosize=1;strokeColor=none;fillColor=none;" vertex="1" parent="1">
          <mxGeometry x="835" y="344" width="130" height="30" as="geometry" />
        </mxCell>
        <mxCell id="hMCn-dpXVEeFwixIljns-16" value="streaming / ondevice" style="text;html=1;align=center;verticalAlign=middle;resizable=0;points=[];autosize=1;strokeColor=none;fillColor=none;" vertex="1" parent="1">
          <mxGeometry x="845" y="480" width="130" height="30" as="geometry" />
        </mxCell>
        <mxCell id="hMCn-dpXVEeFwixIljns-17" value="Mb" style="text;html=1;align=center;verticalAlign=middle;resizable=0;points=[];autosize=1;strokeColor=none;fillColor=none;" vertex="1" parent="1">
          <mxGeometry x="875" y="438" width="40" height="30" as="geometry" />
        </mxCell>
        <mxCell id="hMCn-dpXVEeFwixIljns-18" value="Close/ Deep (Battlefield)" style="text;html=1;align=center;verticalAlign=middle;resizable=0;points=[];autosize=1;strokeColor=none;fillColor=none;" vertex="1" parent="1">
          <mxGeometry x="850" y="126" width="150" height="30" as="geometry" />
        </mxCell>
        <mxCell id="hMCn-dpXVEeFwixIljns-19" value="On-device - AI Detection Device" style="text;html=1;align=center;verticalAlign=middle;resizable=0;points=[];autosize=1;strokeColor=none;fillColor=none;" vertex="1" parent="1">
          <mxGeometry x="830" y="166" width="190" height="30" as="geometry" />
        </mxCell>
        <mxCell id="hMCn-dpXVEeFwixIljns-20" value="Deployment : Road Junctions/ Target Building/ Frontline / Logistics Path" style="text;html=1;align=center;verticalAlign=middle;resizable=0;points=[];autosize=1;strokeColor=none;fillColor=none;" vertex="1" parent="1">
          <mxGeometry x="750" y="218" width="400" height="30" as="geometry" />
        </mxCell>
        <mxCell id="hMCn-dpXVEeFwixIljns-31" style="edgeStyle=orthogonalEdgeStyle;rounded=0;orthogonalLoop=1;jettySize=auto;html=1;entryX=0.5;entryY=0;entryDx=0;entryDy=0;" edge="1" parent="1" source="hMCn-dpXVEeFwixIljns-21" target="hMCn-dpXVEeFwixIljns-22">
          <mxGeometry relative="1" as="geometry" />
        </mxCell>
        <mxCell id="hMCn-dpXVEeFwixIljns-21" value="&lt;div&gt;Analytics&lt;/div&gt;&lt;div&gt;Engine&lt;/div&gt;" style="rounded=0;whiteSpace=wrap;html=1;" vertex="1" parent="1">
          <mxGeometry x="-60" y="314" width="120" height="60" as="geometry" />
        </mxCell>
        <mxCell id="hMCn-dpXVEeFwixIljns-32" style="edgeStyle=orthogonalEdgeStyle;rounded=0;orthogonalLoop=1;jettySize=auto;html=1;entryX=0.5;entryY=1;entryDx=0;entryDy=0;" edge="1" parent="1" source="hMCn-dpXVEeFwixIljns-22" target="hMCn-dpXVEeFwixIljns-21">
          <mxGeometry relative="1" as="geometry" />
        </mxCell>
        <mxCell id="hMCn-dpXVEeFwixIljns-37" style="edgeStyle=orthogonalEdgeStyle;rounded=0;orthogonalLoop=1;jettySize=auto;html=1;" edge="1" parent="1" source="hMCn-dpXVEeFwixIljns-22" target="hMCn-dpXVEeFwixIljns-33">
          <mxGeometry relative="1" as="geometry" />
        </mxCell>
        <mxCell id="hMCn-dpXVEeFwixIljns-22" value="Query Engine" style="rounded=0;whiteSpace=wrap;html=1;" vertex="1" parent="1">
          <mxGeometry x="-60" y="440" width="120" height="60" as="geometry" />
        </mxCell>
        <mxCell id="hMCn-dpXVEeFwixIljns-23" value="Rear / Heaquarters" style="text;html=1;align=center;verticalAlign=middle;resizable=0;points=[];autosize=1;strokeColor=none;fillColor=none;" vertex="1" parent="1">
          <mxGeometry x="-5" y="128" width="130" height="30" as="geometry" />
        </mxCell>
        <mxCell id="hMCn-dpXVEeFwixIljns-26" style="edgeStyle=orthogonalEdgeStyle;rounded=0;orthogonalLoop=1;jettySize=auto;html=1;" edge="1" parent="1" source="hMCn-dpXVEeFwixIljns-24">
          <mxGeometry relative="1" as="geometry">
            <mxPoint x="240" y="442" as="targetPoint" />
          </mxGeometry>
        </mxCell>
        <mxCell id="hMCn-dpXVEeFwixIljns-24" value="" style="rounded=0;whiteSpace=wrap;html=1;fillColor=none;" vertex="1" parent="1">
          <mxGeometry x="650" y="254" width="1030" height="376" as="geometry" />
        </mxCell>
        <mxCell id="hMCn-dpXVEeFwixIljns-27" value="" style="endArrow=classic;html=1;rounded=0;entryX=-0.002;entryY=0.923;entryDx=0;entryDy=0;entryPerimeter=0;" edge="1" parent="1" target="hMCn-dpXVEeFwixIljns-24">
          <mxGeometry width="50" height="50" relative="1" as="geometry">
            <mxPoint x="230" y="600" as="sourcePoint" />
            <mxPoint x="280" y="550" as="targetPoint" />
          </mxGeometry>
        </mxCell>
        <mxCell id="hMCn-dpXVEeFwixIljns-28" value="Kill Command" style="text;html=1;align=center;verticalAlign=middle;resizable=0;points=[];autosize=1;strokeColor=none;fillColor=none;" vertex="1" parent="1">
          <mxGeometry x="330" y="578" width="100" height="30" as="geometry" />
        </mxCell>
        <mxCell id="hMCn-dpXVEeFwixIljns-29" value="Timeseries / Passive" style="text;html=1;align=center;verticalAlign=middle;resizable=0;points=[];autosize=1;strokeColor=none;fillColor=none;" vertex="1" parent="1">
          <mxGeometry x="315" y="418" width="130" height="30" as="geometry" />
        </mxCell>
        <mxCell id="hMCn-dpXVEeFwixIljns-30" value="Active / High Value" style="text;html=1;align=center;verticalAlign=middle;resizable=0;points=[];autosize=1;strokeColor=none;fillColor=none;" vertex="1" parent="1">
          <mxGeometry x="315" y="448" width="120" height="30" as="geometry" />
        </mxCell>
        <mxCell id="hMCn-dpXVEeFwixIljns-33" value="&lt;div&gt;Yes/No&lt;/div&gt;&lt;div&gt;Kill Command&lt;/div&gt;&lt;div&gt;&lt;br&gt;&lt;/div&gt;&lt;div&gt;Screen&lt;/div&gt;" style="whiteSpace=wrap;html=1;aspect=fixed;" vertex="1" parent="1">
          <mxGeometry x="70" y="553" width="80" height="80" as="geometry" />
        </mxCell>
        <mxCell id="hMCn-dpXVEeFwixIljns-34" value="&lt;div&gt;HITL&lt;/div&gt;&lt;div&gt;Human In the Loop&lt;/div&gt;" style="text;html=1;align=center;verticalAlign=middle;resizable=0;points=[];autosize=1;strokeColor=none;fillColor=none;" vertex="1" parent="1">
          <mxGeometry x="45" y="640" width="130" height="40" as="geometry" />
        </mxCell>
        <mxCell id="hMCn-dpXVEeFwixIljns-35" value="Yes/No" style="text;html=1;align=center;verticalAlign=middle;resizable=0;points=[];autosize=1;strokeColor=none;fillColor=none;" vertex="1" parent="1">
          <mxGeometry x="350" y="608" width="60" height="30" as="geometry" />
        </mxCell>
        <mxCell id="hMCn-dpXVEeFwixIljns-38" value="Metadata/ Encrypted Information" style="text;html=1;align=center;verticalAlign=middle;resizable=0;points=[];autosize=1;strokeColor=none;fillColor=none;" vertex="1" parent="1">
          <mxGeometry x="290" y="510" width="200" height="30" as="geometry" />
        </mxCell>
        <mxCell id="hMCn-dpXVEeFwixIljns-39" value="" style="rounded=0;whiteSpace=wrap;html=1;fillColor=none;" vertex="1" parent="1">
          <mxGeometry x="-170" y="284" width="410" height="396" as="geometry" />
        </mxCell>
      </root>
    </mxGraphModel>
  </diagram>
</mxfile>
